<svg id="Capa_1" enable-background="new 0 0 511.945 511.945" height="512" viewBox="0 0 511.945 511.945" width="512" xmlns="http://www.w3.org/2000/svg"><g><g><path d="m480.322 327.301h-181.492c-13.323 0-24.123-10.8-24.123-24.123v-181.491c0-13.323 10.8-24.123 24.123-24.123h181.491c13.323 0 24.123 10.8 24.123 24.123v181.491c.001 13.323-10.799 24.123-24.122 24.123z" fill="#eef5f6"/><path d="m359.397 309.56c-19.858 0-35.956-16.098-35.956-35.956v-169.659c0-2.21.303-4.348.86-6.382h-25.471c-13.323 0-24.123 10.8-24.123 24.123v181.491c0 13.323 10.8 24.123 24.123 24.123h181.491c11.113 0 20.465-7.517 23.264-17.742h-144.188z" fill="#deecf1"/><path d="m304.707 293.557v-162.249c0-2.068 1.677-3.745 3.745-3.745h162.248c2.068 0 3.745 1.677 3.745 3.745v162.249c0 2.068-1.677 3.745-3.745 3.745h-162.248c-2.068 0-3.745-1.677-3.745-3.745z" fill="#f58a97"/><path d="m308.452 297.302h23.916c-5.553-6.329-8.927-14.617-8.927-23.698v-146.04h-14.989c-2.068 0-3.745 1.677-3.745 3.745v162.249c0 2.067 1.676 3.744 3.745 3.744z" fill="#f07281"/><path d="m414.436 212.432 24.596-24.596c2.212-2.212 2.212-5.798 0-8.01l-16.849-16.849c-2.212-2.212-5.798-2.212-8.01 0l-24.596 24.596-24.596-24.596c-2.212-2.212-5.798-2.212-8.01 0l-16.849 16.849c-2.212 2.212-2.212 5.798 0 8.01l24.596 24.596-24.596 24.596c-2.212 2.212-2.212 5.798 0 8.011l16.849 16.849c2.212 2.212 5.798 2.212 8.01 0l24.596-24.596 24.596 24.596c2.212 2.212 5.798 2.212 8.01 0l16.849-16.849c2.212-2.212 2.212-5.799 0-8.011z" fill="#f5f8f9"/><path d="m31.624 327.301h181.491c13.323 0 24.123-10.8 24.123-24.123v-181.491c0-13.323-10.8-24.123-24.123-24.123h-181.491c-13.323 0-24.123 10.8-24.123 24.123v181.491c-.001 13.323 10.8 24.123 24.123 24.123z" fill="#eef5f6"/><path d="m92.428 309.56c-19.989 0-36.193-16.204-36.193-36.193v-169.422c0-2.21.303-4.348.86-6.382h-25.471c-13.323 0-24.123 10.8-24.123 24.123v181.491c0 13.323 10.8 24.123 24.123 24.123h181.491c11.113 0 20.465-7.517 23.264-17.742h-143.951z" fill="#deecf1"/><path d="m207.238 294.075v-163.285c0-1.782-1.445-3.227-3.227-3.227h-163.284c-1.782 0-3.227 1.445-3.227 3.227v163.285c0 1.782 1.445 3.227 3.227 3.227h163.285c1.782 0 3.226-1.445 3.226-3.227z" fill="#ade194"/><path d="m40.727 297.302h24.563c-5.632-6.38-9.055-14.756-9.055-23.935v-145.804h-15.508c-1.782 0-3.227 1.445-3.227 3.227v163.285c0 1.782 1.445 3.227 3.227 3.227z" fill="#97da7b"/><path d="m89.65 257.148h24.279l66.398-66.154c1.13-1.126 1.15-2.949.045-4.099l-19.501-20.306c-1.134-1.181-3.016-1.201-4.175-.046l-53.328 53.132-13.373-16.843c-.427-.538-1.208-.635-1.753-.216l-24.979 19.17c-.557.427-.657 1.227-.222 1.779-.001 0 26.166 33.132 26.609 33.583z" fill="#f5f8f9"/></g><g><path d="m480.322 90.063h-7.668c-4.142 0-7.5 3.358-7.5 7.5s3.358 7.5 7.5 7.5h7.668c9.166 0 16.623 7.458 16.623 16.624v181.491c0 9.166-7.457 16.624-16.623 16.624h-181.492c-9.166 0-16.623-7.458-16.623-16.624v-181.491c0-9.166 7.457-16.624 16.623-16.624h141.861c4.142 0 7.5-3.358 7.5-7.5s-3.358-7.5-7.5-7.5h-141.861c-17.437 0-31.623 14.186-31.623 31.624v181.491c0 17.438 14.186 31.624 31.623 31.624h181.492c17.437 0 31.623-14.186 31.623-31.624v-181.491c0-17.438-14.186-31.624-31.623-31.624z"/><path d="m304.707 262.584c-4.142 0-7.5 3.358-7.5 7.5v27.217c0 4.142 3.358 7.5 7.5 7.5h169.738c4.142 0 7.5-3.358 7.5-7.5v-169.738c0-4.142-3.358-7.5-7.5-7.5h-169.738c-4.142 0-7.5 3.358-7.5 7.5v110.559c0 4.142 3.358 7.5 7.5 7.5s7.5-3.358 7.5-7.5v-103.059h154.738v154.738h-154.738v-19.717c0-4.142-3.358-7.5-7.5-7.5z"/><path d="m334.816 250.343 16.849 16.849c2.486 2.487 5.792 3.856 9.309 3.856s6.823-1.37 9.309-3.856l19.293-19.293 19.292 19.292c2.486 2.487 5.792 3.856 9.309 3.856 3.516 0 6.822-1.369 9.309-3.856l16.849-16.849c5.133-5.133 5.133-13.484 0-18.617l-19.293-19.293 19.293-19.293c5.133-5.133 5.133-13.484 0-18.617l-16.85-16.85c-5.133-5.132-13.485-5.132-18.617 0l-19.293 19.293-19.293-19.293c-5.132-5.132-13.483-5.133-18.617 0l-16.849 16.85c-5.133 5.133-5.133 13.484 0 18.617l19.293 19.293-19.293 19.293c-5.132 5.134-5.132 13.485 0 18.618zm35.204-32.607c2.929-2.929 2.929-7.678 0-10.606l-23.298-23.299 14.253-14.253 23.299 23.299c1.406 1.407 3.314 2.197 5.303 2.197s3.897-.79 5.303-2.197l23.298-23.299 14.253 14.253-23.298 23.299c-2.929 2.929-2.929 7.678 0 10.606l23.298 23.298-14.253 14.253-23.298-23.298c-2.929-2.93-7.678-2.929-10.606 0l-23.299 23.298-14.253-14.253z"/><path d="m424.704 357.084c-12.951 0-23.487 10.537-23.487 23.488v17.822c0 12.951 10.536 23.488 23.487 23.488s23.488-10.537 23.488-23.488v-17.822c-.001-12.952-10.537-23.488-23.488-23.488zm8.487 41.309c0 4.68-3.808 8.488-8.488 8.488s-8.487-3.808-8.487-8.488v-17.822c0-4.68 3.808-8.488 8.487-8.488 4.68 0 8.488 3.808 8.488 8.488z"/><path d="m378.673 357.084c-4.142 0-7.5 3.358-7.5 7.5v24.494l-18.575-28.581c-1.81-2.785-5.235-4.049-8.42-3.104-3.184.944-5.369 3.87-5.369 7.191v49.797c0 4.142 3.358 7.5 7.5 7.5s7.5-3.358 7.5-7.5v-24.494l18.575 28.581c1.409 2.168 3.797 3.414 6.289 3.414.708 0 1.426-.101 2.131-.31 3.184-.944 5.369-3.87 5.369-7.191v-49.797c0-4.142-3.358-7.5-7.5-7.5z"/><path d="m213.115 90.063h-181.491c-17.438 0-31.624 14.186-31.624 31.624v181.491c0 17.438 14.186 31.624 31.624 31.624h181.491c17.438 0 31.624-14.186 31.624-31.624v-181.491c-.001-17.438-14.187-31.624-31.624-31.624zm16.623 213.115c0 9.166-7.458 16.624-16.624 16.624h-181.49c-9.166 0-16.624-7.458-16.624-16.624v-181.491c0-9.166 7.458-16.624 16.624-16.624h181.491c9.166 0 16.624 7.458 16.624 16.624v181.491z"/><path d="m207.238 120.063h-169.738c-4.142 0-7.5 3.358-7.5 7.5v169.738c0 4.142 3.358 7.5 7.5 7.5h22.665c4.142 0 7.5-3.358 7.5-7.5s-3.358-7.5-7.5-7.5h-15.165v-154.738h154.738v154.738h-107.611c-4.142 0-7.5 3.358-7.5 7.5s3.358 7.5 7.5 7.5h115.111c4.142 0 7.5-3.358 7.5-7.5v-169.738c0-4.142-3.358-7.5-7.5-7.5z"/><path d="m113.929 264.648c1.984 0 3.888-.787 5.293-2.187l66.397-66.153c3.999-3.983 4.071-10.536.162-14.608l-19.501-20.305c-1.954-2.035-4.583-3.172-7.404-3.204-2.77-.038-5.475 1.048-7.474 3.04l-47.381 47.207-8.153-10.27c-2.954-3.719-8.424-4.394-12.192-1.501l-24.979 19.169c-1.846 1.417-3.07 3.554-3.358 5.863s.372 4.682 1.813 6.509l25.327 32.13c.539.69 1.133 1.364 1.817 2.062 1.41 1.438 3.34 2.249 5.355 2.249h24.278zm-41.085-40.762 15.094-11.583 9.555 12.036c1.328 1.672 3.306 2.7 5.438 2.824 2.133.122 4.216-.667 5.729-2.174l50.028-49.844 13.163 13.706-61.021 60.797h-17.679z"/><path d="m82.039 360.329-14.615 14.616-15.664-15.664c-2.929-2.929-7.678-2.929-10.606 0-2.929 2.929-2.929 7.678 0 10.606l18.771 18.771v25.724c0 4.142 3.358 7.5 7.5 7.5s7.5-3.358 7.5-7.5v-25.724l17.722-17.722c2.929-2.929 2.929-7.678 0-10.606-2.93-2.93-7.679-2.93-10.608-.001z"/><path d="m138.857 372.084c4.142 0 7.5-3.358 7.5-7.5s-3.358-7.5-7.5-7.5h-25.975c-4.142 0-7.5 3.358-7.5 7.5v49.797c0 4.142 3.358 7.5 7.5 7.5h25.975c4.142 0 7.5-3.358 7.5-7.5s-3.358-7.5-7.5-7.5h-18.475v-9.899h8.487c4.142 0 7.5-3.358 7.5-7.5s-3.358-7.5-7.5-7.5h-8.487v-9.898z"/><path d="m185.052 381.982h-4.415c-2.729 0-4.949-2.22-4.949-4.949s2.22-4.949 4.949-4.949h13.864c4.142 0 7.5-3.358 7.5-7.5s-3.358-7.5-7.5-7.5h-13.864c-11 0-19.949 8.949-19.949 19.949s8.949 19.949 19.949 19.949h4.415c2.729 0 4.949 2.22 4.949 4.95 0 2.729-2.22 4.949-4.949 4.949h-16.864c-4.142 0-7.5 3.358-7.5 7.5s3.358 7.5 7.5 7.5h16.864c11 0 19.949-8.949 19.949-19.95 0-11-8.949-19.949-19.949-19.949z"/></g></g></svg>