<svg width="25" height="25" viewBox="0 0 25 25" fill="none" xmlns="http://www.w3.org/2000/svg">
<path d="M9.42188 3.34375C9.63761 3.34375 9.8125 3.16886 9.8125 2.95312C9.8125 2.73739 9.63761 2.5625 9.42188 2.5625C9.20614 2.5625 9.03125 2.73739 9.03125 2.95312C9.03125 3.16886 9.20614 3.34375 9.42188 3.34375Z" fill="black"/>
<path d="M10.5938 2.5625H16.0625V3.34375H10.5938V2.5625Z" fill="black"/>
<path d="M13.7188 5.6875H17.625V6.46875H13.7188V5.6875Z" fill="black"/>
<path d="M16.8438 7.25H17.625V8.03125H16.8438V7.25Z" fill="black"/>
<path d="M13.7188 7.25H16.0625V8.03125H13.7188V7.25Z" fill="black"/>
<path d="M13.7188 8.8125H17.625V9.59375H13.7188V8.8125Z" fill="black"/>
<path d="M13.7188 10.375H17.625V11.1562H13.7188V10.375Z" fill="black"/>
<path d="M25 24.906V17.1371L23.3161 15.8742L22.7976 14.5778C22.6137 14.1185 22.3435 13.7089 21.994 13.3597L19.3548 10.7202V2.01613C19.3548 0.904436 18.4504 0 17.3387 0H4.43548C3.32379 0 2.41935 0.904436 2.41935 2.01613V11.4589L1.30645 12.5718C0.46371 13.4145 0 14.5347 0 15.7258C0 15.9702 0.0205645 16.2169 0.0604839 16.4589L0.687903 20.2218C0.775 20.7448 0.918952 21.2589 1.11573 21.7504L1.6129 22.9944V25H7.25806V23.0617L7.53629 22.3661C7.61411 22.1714 7.68024 21.9734 7.74113 21.7742H19.7806L25 24.906ZM24.1935 23.481L19.1988 20.4843L23.0218 16.6613L24.1935 17.5403V23.481ZM22.0488 14.8774L22.5109 16.0319L18.406 20.1371L16.6891 19.8919C16.1706 19.8177 15.6839 19.6012 15.281 19.2657L14.4621 18.5835C14.0101 18.2069 13.473 17.9508 12.9036 17.8274V17.7419H12.1391H12.079C11.8661 17.7419 11.6935 17.5694 11.6935 17.3573C11.6935 17.2286 11.7577 17.1089 11.8649 17.0371L12.0153 16.9367C12.4121 16.6722 12.8742 16.5323 13.3512 16.5323C13.9948 16.5323 14.5996 16.7827 15.0544 17.2379L15.4407 17.6238L16.0109 17.0536L15.625 16.6677L10.2129 11.2556C10.1278 11.1702 10.0806 11.0569 10.0806 10.9359C10.0806 10.6867 10.2835 10.4839 10.5327 10.4839C10.6536 10.4839 10.7669 10.531 10.8524 10.6161L14.0782 13.8419L15.844 15.6077L16.4141 15.0375L14.6484 13.2718C14.5645 13.1875 14.5161 13.071 14.5161 12.952C14.5161 12.7028 14.719 12.5 14.9681 12.5C15.0891 12.5 15.2024 12.5472 15.2879 12.6323L17.0536 14.398L17.6238 13.8278L15.8581 12.0621C15.773 11.9766 15.7258 11.8633 15.7258 11.7423C15.7258 11.4931 15.9286 11.2903 16.1778 11.2903C16.2988 11.2903 16.4121 11.3375 16.4976 11.4226L17.304 12.229L18.2633 13.1883L18.8335 12.6181L17.8742 11.6589C17.7891 11.5734 17.7419 11.4601 17.7419 11.3391C17.7419 11.0899 17.9448 10.8871 18.194 10.8871C18.3149 10.8871 18.4282 10.9343 18.5137 11.0194L21.4242 13.9298C21.696 14.2016 21.906 14.5202 22.0488 14.8774ZM12.0782 18.5484H12.0968V19.3548H9.67742V18.5484H12.0782ZM7.75564 15.3226H9.67742V12.9032H7.25806V14.0399C7.02097 13.8359 6.71532 13.7097 6.38306 13.7097C5.76331 13.7097 5.2254 14.1298 5.075 14.731L4.83871 15.6762V4.03226H16.9355V10.7435C16.7177 10.5778 16.456 10.4839 16.1778 10.4839C15.4988 10.4839 14.9476 11.025 14.9238 11.698C14.4306 11.7157 14.0097 12.0153 13.8194 12.4427L11.4226 10.046C11.3815 10.0048 11.3355 9.97177 11.2903 9.9371V4.83871H5.64516V10.4839H9.36169C9.30726 10.6246 9.27419 10.7762 9.27419 10.9359C9.27419 11.0585 9.29718 11.1762 9.33064 11.2903H5.64516V12.0968H9.91371L10.7202 12.9032H10.4839V15.3226H12.9032V15.0863L13.5524 15.7355C13.4855 15.7315 13.419 15.7258 13.3512 15.7258C12.8077 15.7258 12.2823 15.8694 11.8093 16.129H7.81734L7.75564 15.3226ZM8.06452 14.5161V13.7097H8.87097V14.5161H8.06452ZM8.06452 5.64516H8.87097V6.45161H8.06452V5.64516ZM9.67742 7.25806V5.64516H10.4839V9.67742H6.45161V5.64516H7.25806V7.25806H9.67742ZM11.2903 13.7097H11.5266L12.0968 14.2798V14.5161H11.2903V13.7097ZM3.22581 2.01613C3.22581 1.34919 3.76855 0.806452 4.43548 0.806452H17.3387C18.0056 0.806452 18.5484 1.34919 18.5484 2.01613V10.1371C18.4343 10.1036 18.3165 10.0806 18.194 10.0806C18.0343 10.0806 17.8827 10.1137 17.7419 10.1681V3.22581H4.03226V18.0274C3.98145 18.1375 3.93266 18.2492 3.87823 18.3577C3.81976 18.4754 3.70161 18.5484 3.57016 18.5484C3.38024 18.5484 3.22581 18.3935 3.22581 18.204V2.01613ZM6.45161 24.1935H2.41935V23.3871H6.45161V24.1935ZM6.7875 22.0669L6.58185 22.5806H2.31613L1.86452 21.4508C1.68952 21.0133 1.56129 20.5552 1.48347 20.0895L0.856048 16.3266C0.823387 16.1282 0.806452 15.9262 0.806452 15.7258C0.806452 14.75 1.18629 13.8327 1.87661 13.1423L2.41935 12.5996V18.204C2.41935 18.8387 2.93548 19.3548 3.57016 19.3548C4.00887 19.3548 4.40323 19.1113 4.5996 18.7185C5.01089 17.8964 5.33185 17.0274 5.55524 16.1355L5.85766 14.9266C5.91774 14.6851 6.13387 14.5161 6.38306 14.5161C6.66452 14.5161 6.90202 14.7359 6.92339 15.0165L7.23911 19.1181C7.25161 19.2859 7.25806 19.4544 7.25806 19.623C7.25806 20.4637 7.0996 21.2859 6.7875 22.0669ZM7.93911 20.9677C8.02097 20.5262 8.06452 20.077 8.06452 19.623C8.06452 19.4339 8.05726 19.2448 8.04274 19.0565L7.87984 16.9355H10.9734C10.9226 17.0694 10.8871 17.2097 10.8871 17.3573C10.8871 17.4927 10.9145 17.6206 10.9565 17.7419H8.87097V20.1613H12.9032V18.6649C13.2819 18.7722 13.6399 18.948 13.9456 19.2028L14.7645 19.8851C15.2819 20.3161 15.9077 20.5948 16.5746 20.6899L18.4105 20.952L18.4367 20.9677H7.93911Z" fill="white"/>
</svg>
