<svg width="45" height="43" viewBox="0 0 45 43" fill="none" xmlns="http://www.w3.org/2000/svg">
<path d="M22.2856 34.286C21.3214 34.286 20.5178 33.9646 19.8749 33.3217C19.1785 32.6789 18.8571 31.8217 18.8571 30.8574H25.7142C25.7142 31.8217 25.3392 32.6789 24.6964 33.3217C23.9999 33.9646 23.1964 34.286 22.2856 34.286ZM33.8035 26.2503C34.1249 26.6253 34.2856 27.0539 34.2856 27.4824C34.2856 27.911 34.1249 28.3396 33.8035 28.661C33.4821 28.9824 33.0535 29.1431 32.5714 29.1431H11.9999C11.4642 29.1431 11.0892 28.9824 10.7678 28.661C10.4464 28.3396 10.2856 27.911 10.2856 27.4824C10.2856 27.0539 10.4464 26.6253 10.7678 26.2503L10.9285 26.036C11.7321 25.1789 12.3214 24.3753 12.7499 23.5181C13.3928 22.1253 13.7142 20.2503 13.7142 18.0003C13.7142 15.9646 14.3571 14.1431 15.6428 12.5896C16.9285 11.0896 18.5356 10.1253 20.5714 9.69671V8.57171C20.5714 8.14314 20.7321 7.71456 21.0535 7.39314C21.3749 7.07171 21.8035 6.85742 22.2856 6.85742C22.7142 6.85742 23.1428 7.07171 23.4642 7.39314C23.7856 7.71456 23.9999 8.14314 23.9999 8.57171V9.69671C25.9821 10.1253 27.6428 11.0896 28.9285 12.5896C30.2142 14.1431 30.8571 15.9646 30.8571 18.0003C30.8571 20.2503 31.1785 22.1253 31.8214 23.5181C32.1964 24.3753 32.7856 25.1789 33.6428 26.036C33.6964 26.1431 33.7499 26.2503 33.8035 26.2503Z" fill="#BDBDBD"/>
</svg>
