<svg width="45" height="43" viewBox="0 0 45 43" fill="none" xmlns="http://www.w3.org/2000/svg">
<path fill-rule="evenodd" clip-rule="evenodd" d="M32.4316 9.62567H31.0475V6.85742H28.2793V9.62567H17.2063V6.85742H14.438V9.62567H13.0539C11.5314 9.62567 10.2856 10.8714 10.2856 12.3939V31.7717C10.2856 33.2942 11.5314 34.5399 13.0539 34.5399H32.4316C33.9542 34.5399 35.1999 33.2942 35.1999 31.7717V12.3939C35.1999 10.8714 33.9542 9.62567 32.4316 9.62567ZM32.4316 31.7717H13.0538V17.9305H32.4316V31.7717ZM13.0538 12.3938V15.162H32.4316V12.3938H13.0538ZM15.8222 20.6985H29.6634V23.4667H15.8222V20.6985ZM25.5111 26.2352H15.8222V29.0034H25.5111V26.2352Z" fill="#BDBDBD"/>
</svg>
