<svg width="45" height="43" viewBox="0 0 45 43" fill="none" xmlns="http://www.w3.org/2000/svg">
<path d="M14.0273 36.2533H30.9727C31.7007 36.2533 32.291 35.6892 32.291 34.9935V18.8013C32.291 18.1056 31.7007 17.5416 30.9727 17.5416H14.0273C13.2993 17.5416 12.709 18.1056 12.709 18.8013V34.9935C12.709 35.6892 13.2993 36.2533 14.0273 36.2533V36.2533ZM15.3457 20.0611H29.6543V20.9782L22.5 27.8145L19.902 25.332C19.3872 24.84 18.5524 24.84 18.0375 25.332C17.5227 25.8239 17.5227 26.6215 18.0375 27.1135L21.5678 30.4869C21.8253 30.7329 22.1627 30.8559 22.5 30.8559C22.8373 30.8559 23.1748 30.733 23.4322 30.4869L29.6543 24.5413V33.7338H15.3457V20.0611Z" fill="#BDBDBD"/>
<path d="M43.6816 2.69867H36.5273V1.25977C36.5273 0.564039 35.9371 0 35.209 0C34.4809 0 33.8906 0.564039 33.8906 1.25977V2.69867H28.0547V1.25977C28.0547 0.564039 27.4644 0 26.7363 0C26.0082 0 25.418 0.564039 25.418 1.25977V2.69867H19.582V1.25977C19.582 0.564039 18.9918 0 18.2637 0C17.5356 0 16.9453 0.564039 16.9453 1.25977V2.69867H11.1094V1.25977C11.1094 0.564039 10.5191 0 9.79102 0C9.06293 0 8.47266 0.564039 8.47266 1.25977V2.69867H1.31836C0.590273 2.69867 0 3.26271 0 3.95844V41.7402C0 42.436 0.590273 43 1.31836 43H43.6816C44.4097 43 45 42.436 45 41.7402V3.95844C45 3.26271 44.4097 2.69867 43.6816 2.69867V2.69867ZM42.3633 40.4805H2.63672V13.3143H42.3633V40.4805ZM42.3633 10.7948H2.63672V5.2182H8.47266V6.65711C8.47266 7.35283 9.06293 7.91687 9.79102 7.91687C10.5191 7.91687 11.1094 7.35283 11.1094 6.65711V5.2182H16.9453V6.65711C16.9453 7.35283 17.5356 7.91687 18.2637 7.91687C18.9918 7.91687 19.582 7.35283 19.582 6.65711V5.2182H25.418V6.65711C25.418 7.35283 26.0082 7.91687 26.7363 7.91687C27.4644 7.91687 28.0547 7.35283 28.0547 6.65711V5.2182H33.8906V6.65711C33.8906 7.35283 34.4809 7.91687 35.209 7.91687C35.9371 7.91687 36.5273 7.35283 36.5273 6.65711V5.2182H42.3633V10.7948Z" fill="#BDBDBD"/>
</svg>
