<svg width="45" height="43" viewBox="0 0 45 43" fill="none" xmlns="http://www.w3.org/2000/svg">
<g clip-path="url(#clip0)">
<path d="M42.0899 5H41.3843C41.0031 5 40.694 5.30904 40.694 5.69022C40.694 6.07141 41.0031 6.38044 41.3843 6.38044H42.0899C42.9335 6.38044 43.6197 7.0668 43.6197 7.91034V24.6129C43.6197 25.4564 42.9335 26.1428 42.0899 26.1428H25.3873C24.5438 26.1428 23.8575 25.4564 23.8575 24.6129V7.91034C23.8575 7.0668 24.5438 6.38044 25.3873 6.38044H38.4427C38.8239 6.38044 39.1329 6.07141 39.1329 5.69022C39.1329 5.30904 38.8239 5 38.4427 5H25.3873C23.7826 5 22.4771 6.30553 22.4771 7.91034V24.6129C22.4771 26.2177 23.7826 27.5232 25.3873 27.5232H42.0899C43.6947 27.5232 45.0002 26.2177 45.0002 24.6129V7.91034C45.0002 6.30553 43.6947 5 42.0899 5Z" fill="#BDBDBD"/>
<path d="M25.928 20.8769C25.5468 20.8769 25.2378 21.1859 25.2378 21.5671V24.0719C25.2378 24.4531 25.5468 24.7621 25.928 24.7621H41.5489C41.9301 24.7621 42.2392 24.4531 42.2392 24.0719V8.45096C42.2392 8.06978 41.9301 7.76074 41.5489 7.76074H25.928C25.5468 7.76074 25.2378 8.06978 25.2378 8.45096V18.6257C25.2378 19.0069 25.5468 19.3159 25.928 19.3159C26.3092 19.3159 26.6182 19.0069 26.6182 18.6257V9.14119H40.8587V23.3817H26.6182V21.5671C26.6182 21.1859 26.3092 20.8769 25.928 20.8769Z" fill="#BDBDBD"/>
<path d="M28.699 19.7509L30.2496 21.3015C30.4784 21.5304 30.7827 21.6564 31.1063 21.6564C31.43 21.6564 31.7342 21.5303 31.963 21.3015L33.7386 19.526L35.514 21.3014C35.7428 21.5303 36.047 21.6563 36.3707 21.6563C36.6943 21.6563 36.9985 21.5303 37.2274 21.3014L38.778 19.7508C39.2504 19.2784 39.2504 18.5099 38.778 18.0375L37.0025 16.262L38.778 14.4864C39.2504 14.014 39.2504 13.2455 38.778 12.7731L37.2273 11.2224C36.7549 10.7501 35.9863 10.7501 35.514 11.2224L33.7385 12.9979L31.9629 11.2224C31.4906 10.7501 30.7221 10.75 30.2496 11.2224L28.699 12.7731C28.2266 13.2455 28.2266 14.014 28.699 14.4864L30.4745 16.262L28.699 18.0375C28.2267 18.51 28.2267 19.2785 28.699 19.7509ZM31.9388 16.7501C32.2084 16.4805 32.2084 16.0435 31.9388 15.774L29.7947 13.6298L31.1064 12.3181L33.2506 14.4623C33.38 14.5918 33.5556 14.6645 33.7386 14.6645C33.9217 14.6645 34.0973 14.5918 34.2267 14.4623L36.3708 12.3181L37.6825 13.6298L35.5384 15.774C35.2688 16.0436 35.2688 16.4806 35.5384 16.7501L37.6825 18.8942L36.3708 20.2059L34.2267 18.0618C33.9571 17.7921 33.5201 17.7922 33.2506 18.0618L31.1064 20.2059L29.7947 18.8942L31.9388 16.7501Z" fill="#BDBDBD"/>
<path d="M39.0853 29.5742C37.8935 29.5742 36.9238 30.5439 36.9238 31.7358V33.376C36.9238 34.5678 37.8935 35.5375 39.0853 35.5375C40.2772 35.5375 41.2469 34.5678 41.2469 33.376V31.7358C41.2468 30.5438 40.2772 29.5742 39.0853 29.5742ZM39.8664 33.3759C39.8664 33.8066 39.5159 34.157 39.0852 34.157C38.6545 34.157 38.3042 33.8066 38.3042 33.3759V31.7357C38.3042 31.305 38.6546 30.9546 39.0852 30.9546C39.5159 30.9546 39.8664 31.305 39.8664 31.7357V33.3759Z" fill="#BDBDBD"/>
<path d="M34.8493 29.5734C34.4681 29.5734 34.1591 29.8824 34.1591 30.2636V32.5178L32.4497 29.8875C32.2831 29.6312 31.9679 29.5148 31.6748 29.6018C31.3818 29.6887 31.1807 29.958 31.1807 30.2636V34.8464C31.1807 35.2276 31.4897 35.5366 31.8709 35.5366C32.2521 35.5366 32.5611 35.2276 32.5611 34.8464V32.5922L34.2706 35.2225C34.4002 35.422 34.62 35.5367 34.8493 35.5367C34.9145 35.5367 34.9806 35.5274 35.0454 35.5082C35.3385 35.4213 35.5396 35.152 35.5396 34.8464V30.2636C35.5396 29.8824 35.2305 29.5734 34.8493 29.5734Z" fill="#BDBDBD"/>
<path d="M19.6129 5H2.91034C1.30553 5 0 6.30553 0 7.91034V24.6129C0 26.2177 1.30553 27.5232 2.91034 27.5232H19.6129C21.2177 27.5232 22.5232 26.2177 22.5232 24.6129V7.91034C22.5231 6.30553 21.2176 5 19.6129 5ZM21.1427 24.6129C21.1427 25.4564 20.4563 26.1428 19.6128 26.1428H2.91034C2.0668 26.1428 1.38044 25.4564 1.38044 24.6129V7.91034C1.38044 7.0668 2.0668 6.38044 2.91034 6.38044H19.6129C20.4564 6.38044 21.1428 7.0668 21.1428 7.91034V24.6129H21.1427Z" fill="#BDBDBD"/>
<path d="M19.0719 7.76074H3.45096C3.06978 7.76074 2.76074 8.06978 2.76074 8.45096V24.0719C2.76074 24.4531 3.06978 24.7621 3.45096 24.7621H5.53681C5.918 24.7621 6.22704 24.4531 6.22704 24.0719C6.22704 23.6907 5.918 23.3817 5.53681 23.3817H4.14119V9.14119H18.3817V23.3817H8.47826C8.09708 23.3817 7.78804 23.6907 7.78804 24.0719C7.78804 24.4531 8.09708 24.7621 8.47826 24.7621H19.0719C19.4531 24.7621 19.7621 24.4531 19.7621 24.0719V8.45096C19.7621 8.06978 19.4531 7.76074 19.0719 7.76074Z" fill="#BDBDBD"/>
<path d="M10.485 21.0668C10.6676 21.0668 10.8428 20.9944 10.9721 20.8655L17.0826 14.7775C17.4507 14.411 17.4573 13.8079 17.0975 13.4331L15.3029 11.5645C15.123 11.3772 14.8811 11.2726 14.6215 11.2696C14.3666 11.2661 14.1176 11.3661 13.9336 11.5494L9.57319 15.8938L8.82288 14.9487C8.55102 14.6064 8.04762 14.5443 7.70085 14.8106L5.40204 16.5747C5.23216 16.7051 5.11951 16.9017 5.09301 17.1142C5.0665 17.3267 5.12724 17.5451 5.25986 17.7133L7.59069 20.6702C7.64029 20.7337 7.69496 20.7957 7.75791 20.8599C7.88767 20.9923 8.06529 21.0669 8.25073 21.0669H10.485V21.0668ZM6.70399 17.3155L8.09308 16.2495L8.97242 17.3572C9.09464 17.5111 9.27667 17.6057 9.47288 17.6171C9.66918 17.6283 9.86088 17.5557 10.0001 17.417L14.6042 12.8299L15.8156 14.0912L10.1998 19.6864H8.57283L6.70399 17.3155Z" fill="#BDBDBD"/>
<path d="M7.55025 29.8728L6.20523 31.2179L4.76368 29.7764C4.49413 29.5068 4.05708 29.5068 3.78762 29.7764C3.51806 30.0459 3.51806 30.483 3.78762 30.7524L5.5151 32.4799V34.8473C5.5151 35.2285 5.82414 35.5375 6.20532 35.5375C6.58651 35.5375 6.89555 35.2285 6.89555 34.8473V32.4799L8.52649 30.849C8.79605 30.5794 8.79605 30.1424 8.52649 29.8729C8.25685 29.6033 7.8198 29.6033 7.55025 29.8728Z" fill="#BDBDBD"/>
<path d="M12.7789 30.9547C13.1601 30.9547 13.4692 30.6456 13.4692 30.2644C13.4692 29.8833 13.1601 29.5742 12.7789 29.5742H10.3885C10.0073 29.5742 9.69824 29.8833 9.69824 30.2644V34.8472C9.69824 35.2284 10.0073 35.5375 10.3885 35.5375H12.7789C13.1601 35.5375 13.4692 35.2284 13.4692 34.8472C13.4692 34.4661 13.1601 34.157 12.7789 34.157H11.0787V33.246H11.8597C12.2409 33.246 12.55 32.937 12.55 32.5558C12.55 32.1746 12.2409 31.8656 11.8597 31.8656H11.0787V30.9547H12.7789Z" fill="#BDBDBD"/>
<path d="M17.0303 31.8656H16.624C16.3728 31.8656 16.1685 31.6613 16.1685 31.4101C16.1685 31.159 16.3728 30.9547 16.624 30.9547H17.8999C18.2811 30.9547 18.5901 30.6456 18.5901 30.2644C18.5901 29.8833 18.2811 29.5742 17.8999 29.5742H16.624C15.6117 29.5742 14.7881 30.3978 14.7881 31.4101C14.7881 32.4224 15.6117 33.246 16.624 33.246H17.0303C17.2814 33.246 17.4858 33.4503 17.4858 33.7016C17.4858 33.9527 17.2814 34.157 17.0303 34.157H15.4783C15.0971 34.157 14.7881 34.4661 14.7881 34.8472C14.7881 35.2284 15.0971 35.5375 15.4783 35.5375H17.0303C18.0426 35.5375 18.8662 34.7139 18.8662 33.7015C18.8662 32.6891 18.0426 31.8656 17.0303 31.8656Z" fill="#BDBDBD"/>
</g>
<defs>
<clipPath id="clip0">
<rect width="44.57" height="42.29" fill="white"/>
</clipPath>
</defs>
</svg>
