<svg width="25" height="25" viewBox="0 0 25 25" fill="none" xmlns="http://www.w3.org/2000/svg">
<path d="M21.6215 11.716C22.3536 11.0003 22.8383 9.80992 22.8383 8.46813C22.8383 6.27309 21.5621 4.4978 19.9842 4.4978C18.4062 4.4978 17.13 6.27309 17.13 8.46813C17.13 9.80992 17.6098 11.0003 18.3469 11.716C17.7186 12.0187 17.1448 12.4866 16.6601 13.0922C15.9923 12.3008 15.2058 11.6953 14.3451 11.3375C15.3888 10.4567 16.0912 8.85346 16.0912 7.03C16.0912 4.25008 14.4737 2 12.4753 2C10.4769 2 8.85932 4.25696 8.85932 7.03C8.85932 8.85346 9.55679 10.4567 10.6055 11.3375C9.75465 11.6953 8.97804 12.294 8.3152 13.0715C7.83043 12.4797 7.26652 12.0187 6.6482 11.7228C7.38029 11.0072 7.86506 9.8168 7.86506 8.47501C7.86506 6.27997 6.58884 4.50468 5.01088 4.50468C3.43292 4.50468 2.15671 6.27997 2.15671 8.47501C2.15671 9.8168 2.63653 11.0072 3.37357 11.7228C1.40977 12.6655 0 15.2597 0 18.3079V18.7621C0 18.7759 0.00989315 18.7896 0.0197863 18.7896H6.06945C6.03482 19.1681 6.01504 19.5603 6.01504 19.9525V20.4204C6.01504 22.4434 7.19232 24.0811 8.64662 24.0811H16.3138C17.7681 24.0811 18.9454 22.4434 18.9454 20.4204V19.9525C18.9454 19.5603 18.9256 19.1681 18.891 18.7896H24.9802C24.9901 18.7896 25 18.7759 25 18.7621V18.3079C24.9901 15.2528 23.5853 12.6587 21.6215 11.716ZM17.9214 8.46125C17.9214 6.87862 18.8465 5.59188 19.9842 5.59188C21.1219 5.59188 22.0469 6.87862 22.0469 8.46125C22.0469 10.0232 21.1417 11.2962 20.0237 11.3306C20.0089 11.3306 19.999 11.3306 19.9842 11.3306C19.9693 11.3306 19.9594 11.3306 19.9446 11.3306C18.8217 11.3031 17.9214 10.0301 17.9214 8.46125ZM9.64088 7.03C9.64088 4.86249 10.9072 3.10096 12.4654 3.10096C14.0235 3.10096 15.2899 4.86249 15.2899 7.03C15.2899 9.12182 14.1076 10.8352 12.6286 10.9522C12.5742 10.9522 12.5198 10.9522 12.4654 10.9522C12.411 10.9522 12.3565 10.9522 12.3021 10.9522C10.8231 10.8352 9.64088 9.12182 9.64088 7.03ZM2.93332 8.46125C2.93332 6.87862 3.85833 5.59188 4.99604 5.59188C6.13376 5.59188 7.05877 6.87862 7.05877 8.46125C7.05877 10.0232 6.15354 11.2962 5.03562 11.3306C5.02078 11.3306 5.01088 11.3306 4.99604 11.3306C4.9812 11.3306 4.97131 11.3306 4.95647 11.3306C3.83854 11.3031 2.93332 10.0301 2.93332 8.46125ZM6.20795 17.6818H0.801346C1.02394 14.7505 2.80471 12.4522 4.96636 12.4316C4.97626 12.4316 4.98615 12.4316 4.99604 12.4316C5.00594 12.4316 5.01583 12.4316 5.02572 12.4316C6.05461 12.4385 6.99446 12.9683 7.72161 13.8284C7.0093 14.9019 6.48002 16.223 6.20795 17.6818ZM18.144 20.4204C18.144 21.831 17.318 22.9801 16.3039 22.9801H8.63672C7.62268 22.9801 6.7966 21.831 6.7966 20.4204V19.9525C6.7966 15.6794 9.2501 12.1839 12.3021 12.06C12.3565 12.0669 12.4159 12.0669 12.4703 12.0669C12.5247 12.0669 12.5841 12.0669 12.6385 12.06C15.6905 12.1839 18.144 15.6794 18.144 19.9525V20.4204ZM18.7327 17.6818C18.4606 16.2299 17.9412 14.9294 17.2339 13.8559C17.966 12.9752 18.9157 12.4453 19.9545 12.4316C19.9644 12.4316 19.9743 12.4316 19.9842 12.4316C19.9941 12.4316 20.004 12.4316 20.0139 12.4316C22.1755 12.4522 23.9563 14.7505 24.1789 17.6818H18.7327Z" fill="white"/>
</svg>
