<svg width="45" height="43" viewBox="0 0 45 43" fill="none" xmlns="http://www.w3.org/2000/svg">
<path d="M34.6394 24.0615C34.6394 23.8166 34.5161 23.6329 34.3929 23.4493L22.8093 14.0207C22.6245 13.8982 22.4396 13.837 22.3164 13.837C22.1315 13.837 21.9467 13.8982 21.8235 14.0207L10.2399 23.4493C10.055 23.6329 9.9934 23.8166 9.9934 24.0615V32.8166C9.9934 33.2452 10.1166 33.6125 10.4247 33.8574C10.6712 34.1635 11.0409 34.286 11.4722 34.286H18.6195C18.8043 34.286 18.9892 34.2248 19.1124 34.1023C19.2356 33.9799 19.3589 33.7962 19.3589 33.5513V26.6942C19.3589 26.5105 19.4205 26.3268 19.5437 26.2044C19.6669 26.0819 19.8518 25.9595 20.0982 25.9595H24.5345C24.7194 25.9595 24.9042 26.0819 25.0274 26.2044C25.1507 26.3268 25.2739 26.5105 25.2739 26.6942V33.5513C25.2739 33.7962 25.3355 33.9799 25.4587 34.1023C25.582 34.2248 25.7668 34.286 26.0133 34.286H33.1606C33.5303 34.286 33.9 34.1635 34.2081 33.8574C34.4545 33.6125 34.6394 33.2452 34.6394 32.8166V24.0615ZM39.815 20.3268C39.9382 20.4493 39.9999 20.6329 39.9999 20.8166C39.9999 21.0615 39.9999 21.2452 39.8766 21.3676L38.3363 23.2656C38.213 23.4493 38.0282 23.5105 37.8433 23.5105C37.5969 23.5105 37.412 23.4493 37.2888 23.3268L22.8093 11.5105C22.6245 11.388 22.4396 11.3268 22.3164 11.3268C22.1315 11.3268 21.9467 11.388 21.8235 11.5105L7.34396 23.3268C7.15912 23.4493 6.97427 23.5105 6.78943 23.5105C6.54297 23.5105 6.41974 23.4493 6.29651 23.2656L4.75613 21.3676C4.6329 21.2452 4.57129 21.0615 4.57129 20.8166C4.57129 20.6329 4.69452 20.4493 4.81775 20.3268L20.4679 7.53089C20.9609 7.10232 21.577 6.85742 22.3164 6.85742C22.9941 6.85742 23.6103 7.10232 24.2264 7.53089L29.7102 12.0615V7.59212C29.7102 7.40844 29.7718 7.22477 29.895 7.10232C30.0182 6.97987 30.2031 6.85742 30.4496 6.85742H33.9C34.0848 6.85742 34.2697 6.97987 34.3929 7.10232C34.5161 7.22477 34.6394 7.40844 34.6394 7.59212V16.1023L39.815 20.3268Z" fill="#BDBDBD"/>
</svg>
