<svg width="25" height="25" viewBox="0 0 25 25" fill="none" xmlns="http://www.w3.org/2000/svg">
<g clip-path="url(#clip0)">
<path d="M21.3388 3.66115C18.9779 1.30021 15.8389 0 12.5 0C9.16119 0 6.02209 1.30021 3.66115 3.66115C1.30021 6.02209 0 9.16114 0 12.5C0 15.8389 1.30021 18.9779 3.66115 21.3388C6.02209 23.6998 9.16114 25 12.5 25C15.8388 25 18.9779 23.6998 21.3388 21.3388C23.6997 18.9779 24.9999 15.8389 24.9999 12.5C24.9999 9.16119 23.6998 6.02209 21.3388 3.66115ZM21.345 15.3962L23.4495 13.8744C23.2748 15.289 22.8307 16.6414 22.143 17.8715L21.345 15.3962ZM20.3577 14.3008L16.8625 13.1492L15.6491 9.41459L17.8211 6.44567L21.7323 6.45232C22.8167 8.10036 23.4361 10.0082 23.5227 12.0122L20.3577 14.3008ZM12.5 15.5682L9.58203 13.4482L10.6966 10.0178H14.3035L15.4181 13.4482L12.5 15.5682ZM8.13877 13.1452L4.63812 14.279L1.47845 11.9807C1.57062 9.9776 2.19551 8.07152 3.28483 6.42612L7.19499 6.43057L9.35174 9.4121L8.13877 13.1452ZM2.84175 17.844C2.15788 16.6122 1.71758 15.2587 1.54687 13.8435L3.64683 15.371L2.84175 17.844ZM20.5773 4.98418L17.9833 4.97978L17.1829 2.50321C18.3272 3.04013 19.3817 3.77757 20.3021 4.69794C20.3959 4.79182 20.4872 4.88756 20.5773 4.98418ZM15.4336 1.85853L16.6369 5.58121L14.4638 8.5516H10.5388L8.38245 5.57061L9.59659 1.85061C10.5313 1.59736 11.5055 1.46618 12.5 1.46618C13.5051 1.46618 14.4897 1.59995 15.4336 1.85853ZM7.84558 2.49016L7.03811 4.96419L4.44399 4.96126C4.52722 4.87246 4.61148 4.78439 4.69794 4.69794C5.62593 3.76994 6.69028 3.02815 7.84558 2.49016ZM3.88054 19.3893L5.09019 15.6738L8.5905 14.5401L11.7669 16.8478V20.5274L8.60101 22.8275C7.15301 22.2816 5.82489 21.4291 4.69789 20.3021C4.40675 20.0109 4.13458 19.7059 3.88054 19.3893ZM10.3978 23.3344L12.5 21.8071L14.6021 23.3344C13.9165 23.466 13.2135 23.5338 12.5 23.5338C11.7865 23.5338 11.0834 23.4659 10.3978 23.3344ZM16.3989 22.8276L13.2331 20.5274V16.8479L16.4061 14.5425L19.9005 15.6939L21.0999 19.4138C20.8514 19.7216 20.5858 20.0185 20.3021 20.3021C19.1751 21.4291 17.8469 22.2816 16.3989 22.8276Z" fill="white"/>
</g>
<defs>
<clipPath id="clip0">
<rect width="25" height="25" fill="white"/>
</clipPath>
</defs>
</svg>
