<svg id="Layer_1" enable-background="new 0 0 511.192 511.192" height="512" viewBox="0 0 511.192 511.192" width="512" xmlns="http://www.w3.org/2000/svg"><g><path d="m257.797 60.436c24.478 0 44.497-19.912 44.63-44.388h-89.377c.078.523.132 1.054.154 1.594.989 23.996 20.576 42.794 44.593 42.794z"/><path d="m446.548 44.001-23.835-8.74-312.853 408.95s.027 43.59.027 47.412l342.036-444.186c-1.511-1.51-3.339-2.69-5.375-3.436z"/><path d="m509.288 148.402-41.18-73.3-322.847 420.042h241.225c8.199 0 14.846-6.647 14.846-14.846v-269.816l13.246 14.864c5.356 6.012 14.527 6.656 20.672 1.458l70.683-59.798c5.433-4.596 6.841-12.4 3.355-18.604z"/><path d="m109.86 395.344 283.659-370.789-20.727-7.6c-1.637-.6-3.367-.907-5.111-.907h-4.454-31.116c0 .052.007.102.007.154-.216 40.763-33.557 73.927-74.321 73.927-39.995 0-72.613-31.303-74.259-71.265-.039-.96.021-1.899.158-2.815h-35.732-4.454c-1.744 0-3.474.307-5.111.907l-73.756 27.045c-3.321 1.218-6.099 3.582-7.832 6.667l-54.908 97.734c-3.485 6.204-2.078 14.009 3.355 18.605l70.683 59.798c6.147 5.197 15.316 4.552 20.672-1.458l13.246-14.864v184.861z"/></g></svg>