<svg width="45" height="43" viewBox="0 0 45 43" fill="none" xmlns="http://www.w3.org/2000/svg">
<path d="M16.8496 30.0587H27.7699C28.2391 30.0587 28.6195 29.6952 28.6195 29.2468V18.8118C28.6195 18.3635 28.2391 18 27.7699 18H16.8496C16.3804 18 16 18.3635 16 18.8118V29.2468C16 29.6952 16.3804 30.0587 16.8496 30.0587V30.0587ZM17.6992 19.6237H26.9203V20.2147L22.3098 24.6204L20.6355 23.0205C20.3037 22.7034 19.7658 22.7034 19.434 23.0205C19.1022 23.3375 19.1022 23.8515 19.434 24.1686L21.709 26.3426C21.8749 26.5011 22.0924 26.5804 22.3098 26.5804C22.5272 26.5804 22.7447 26.5011 22.9105 26.3426L26.9203 22.511V28.435H17.6992V19.6237Z" fill="#BDBDBD"/>
<path d="M36.1504 8.73914H31.5398V7.81185C31.5398 7.36349 31.1594 7 30.6902 7C30.221 7 29.8406 7.36349 29.8406 7.81185V8.73914H26.0797V7.81185C26.0797 7.36349 25.6993 7 25.2301 7C24.7609 7 24.3805 7.36349 24.3805 7.81185V8.73914H20.6195V7.81185C20.6195 7.36349 20.2391 7 19.7699 7C19.3007 7 18.9203 7.36349 18.9203 7.81185V8.73914H15.1594V7.81185C15.1594 7.36349 14.779 7 14.3098 7C13.8406 7 13.4602 7.36349 13.4602 7.81185V8.73914H8.84961C8.3804 8.73914 8 9.10263 8 9.55099V33.8993C8 34.3476 8.3804 34.7111 8.84961 34.7111H36.1504C36.6196 34.7111 37 34.3476 37 33.8993V9.55099C37 9.10263 36.6196 8.73914 36.1504 8.73914V8.73914ZM35.3008 33.0874H9.69922V15.5803H35.3008V33.0874ZM35.3008 13.9566H9.69922V10.3628H13.4602V11.2901C13.4602 11.7385 13.8406 12.102 14.3098 12.102C14.779 12.102 15.1594 11.7385 15.1594 11.2901V10.3628H18.9203V11.2901C18.9203 11.7385 19.3007 12.102 19.7699 12.102C20.2391 12.102 20.6195 11.7385 20.6195 11.2901V10.3628H24.3805V11.2901C24.3805 11.7385 24.7609 12.102 25.2301 12.102C25.6993 12.102 26.0797 11.7385 26.0797 11.2901V10.3628H29.8406V11.2901C29.8406 11.7385 30.221 12.102 30.6902 12.102C31.1594 12.102 31.5398 11.7385 31.5398 11.2901V10.3628H35.3008V13.9566Z" fill="#BDBDBD"/>
</svg>
